<?xml version="1.0" standalone="no"?>
<!DOCTYPE svg PUBLIC "-//W3C//DTD SVG 20010904//EN"
 "http://www.w3.org/TR/2001/REC-SVG-20010904/DTD/svg10.dtd">
<svg version="1.0" xmlns="http://www.w3.org/2000/svg"
 width="100.000000pt" height="100.000000pt" viewBox="0 0 100.000000 100.000000"
 preserveAspectRatio="xMidYMid meet">

<g transform="translate(0.000000,100.000000) scale(0.100000,-0.100000)"
fill="#000000" stroke="none">
<path d="M509 747 c-174 -84 -324 -158 -333 -166 -9 -7 -16 -22 -16 -32 0 -32
122 -268 142 -275 12 -3 78 22 182 71 l164 77 21 -21 c47 -47 131 -8 131 62 0
32 3 35 92 78 51 24 96 52 102 61 8 12 -2 42 -39 124 -60 130 -84 168 -110
171 -11 1 -162 -67 -336 -150z"/>
<path d="M12 498 c-7 -7 -12 -16 -12 -20 0 -5 30 -71 67 -148 48 -102 71 -140
84 -140 9 0 32 18 49 40 38 48 38 52 -26 184 l-47 96 -51 0 c-29 0 -57 -5 -64
-12z"/>
<path d="M700 280 c0 -94 10 -100 170 -100 123 0 130 1 130 20 0 18 -8 20
-127 22 l-128 3 -3 58 c-3 49 -6 57 -22 57 -18 0 -20 -7 -20 -60z"/>
</g>
</svg>
