<?xml version="1.0" standalone="no"?>
<!DOCTYPE svg PUBLIC "-//W3C//DTD SVG 20010904//EN"
 "http://www.w3.org/TR/2001/REC-SVG-20010904/DTD/svg10.dtd">
<svg version="1.0" xmlns="http://www.w3.org/2000/svg"
 width="48.000000pt" height="48.000000pt" viewBox="0 0 48.000000 48.000000"
 preserveAspectRatio="xMidYMid meet">

<g transform="translate(0.000000,48.000000) scale(0.100000,-0.100000)"
fill="#000000" stroke="none">
<path d="M152 408 c-8 -8 -12 -49 -12 -120 0 -101 -1 -108 -20 -108 -26 0 -60
-34 -60 -60 0 -26 34 -60 60 -60 11 0 29 9 40 20 17 17 20 33 20 120 l0 100
90 0 90 0 0 -60 c0 -53 -2 -60 -20 -60 -26 0 -60 -34 -60 -60 0 -26 34 -60 60
-60 11 0 29 9 40 20 18 18 20 33 20 180 l0 160 -118 0 c-78 0 -122 -4 -130
-12z m208 -48 c0 -19 -7 -20 -90 -20 -83 0 -90 1 -90 20 0 19 7 20 90 20 83 0
90 -1 90 -20z m-224 -231 c10 -17 -13 -36 -27 -22 -12 12 -4 33 11 33 5 0 12
-5 16 -11z m220 0 c10 -17 -13 -36 -27 -22 -12 12 -4 33 11 33 5 0 12 -5 16
-11z"/>
</g>
</svg>
